<mxfile host="65bd71144e">
    <diagram id="kZkTqC7BUFnccp1RNzln" name="Page-1">
        <mxGraphModel dx="300" dy="1835" grid="1" gridSize="10" guides="1" tooltips="1" connect="1" arrows="1" fold="1" page="0" pageScale="1" pageWidth="1100" pageHeight="850" math="0" shadow="0">
            <root>
                <mxCell id="0"/>
                <mxCell id="1" parent="0"/>
                <mxCell id="Ls7KZZwDkmB82CPcDAoL-110" style="edgeStyle=none;orthogonalLoop=1;jettySize=auto;html=1;exitX=0.5;exitY=1;exitDx=0;exitDy=0;entryX=0.5;entryY=0;entryDx=0;entryDy=0;" parent="1" source="Ls7KZZwDkmB82CPcDAoL-99" target="Ls7KZZwDkmB82CPcDAoL-66" edge="1">
                    <mxGeometry relative="1" as="geometry"/>
                </mxCell>
                <mxCell id="Ls7KZZwDkmB82CPcDAoL-46" value="showContent($response['postResult'])" style="rounded=0;whiteSpace=wrap;html=1;" parent="1" vertex="1">
                    <mxGeometry x="1651" y="281" width="290" height="40" as="geometry"/>
                </mxCell>
                <mxCell id="Ls7KZZwDkmB82CPcDAoL-48" value="functions.php" style="text;html=1;align=center;verticalAlign=middle;resizable=0;points=[];autosize=1;strokeColor=#B09500;fillColor=#e3c800;rounded=0;fontColor=#000000;" parent="1" vertex="1">
                    <mxGeometry x="1931" y="286" width="90" height="30" as="geometry"/>
                </mxCell>
                <mxCell id="Ls7KZZwDkmB82CPcDAoL-56" style="edgeStyle=orthogonalEdgeStyle;orthogonalLoop=1;jettySize=auto;html=1;exitX=0.5;exitY=1;exitDx=0;exitDy=0;entryX=0.5;entryY=0;entryDx=0;entryDy=0;" parent="1" source="Ls7KZZwDkmB82CPcDAoL-52" target="Ls7KZZwDkmB82CPcDAoL-46" edge="1">
                    <mxGeometry relative="1" as="geometry"/>
                </mxCell>
                <mxCell id="Ls7KZZwDkmB82CPcDAoL-52" value="showContent($response)" style="rounded=0;whiteSpace=wrap;html=1;" parent="1" vertex="1">
                    <mxGeometry x="1651" y="141" width="290" height="40" as="geometry"/>
                </mxCell>
                <mxCell id="Ls7KZZwDkmB82CPcDAoL-53" value="functions.php" style="text;html=1;align=center;verticalAlign=middle;resizable=0;points=[];autosize=1;strokeColor=#B09500;fillColor=#e3c800;rounded=0;fontColor=#000000;" parent="1" vertex="1">
                    <mxGeometry x="1931" y="146" width="90" height="30" as="geometry"/>
                </mxCell>
                <mxCell id="Ls7KZZwDkmB82CPcDAoL-54" value="switch ($response['page'])" style="text;html=1;align=center;verticalAlign=middle;resizable=0;points=[];autosize=1;strokeColor=#006EAF;fillColor=#1ba1e2;rounded=0;fontColor=#ffffff;" parent="1" vertex="1">
                    <mxGeometry x="1716" y="191" width="160" height="30" as="geometry"/>
                </mxCell>
                <mxCell id="Ls7KZZwDkmB82CPcDAoL-57" value="$response['postResult']" style="text;html=1;align=center;verticalAlign=middle;resizable=0;points=[];autosize=1;strokeColor=#006EAF;fillColor=#1ba1e2;rounded=0;fontColor=#ffffff;" parent="1" vertex="1">
                    <mxGeometry x="1721" y="231" width="150" height="30" as="geometry"/>
                </mxCell>
                <mxCell id="Ls7KZZwDkmB82CPcDAoL-62" style="edgeStyle=orthogonalEdgeStyle;orthogonalLoop=1;jettySize=auto;html=1;exitX=0.5;exitY=1;exitDx=0;exitDy=0;entryX=0.5;entryY=0;entryDx=0;entryDy=0;" parent="1" source="Ls7KZZwDkmB82CPcDAoL-59" target="Ls7KZZwDkmB82CPcDAoL-52" edge="1">
                    <mxGeometry relative="1" as="geometry"/>
                </mxCell>
                <mxCell id="Ls7KZZwDkmB82CPcDAoL-59" value="showResponsePage($response)" style="rounded=0;whiteSpace=wrap;html=1;" parent="1" vertex="1">
                    <mxGeometry x="1651" y="38" width="290" height="40" as="geometry"/>
                </mxCell>
                <mxCell id="Ls7KZZwDkmB82CPcDAoL-60" value="functions.php" style="text;html=1;align=center;verticalAlign=middle;resizable=0;points=[];autosize=1;strokeColor=#B09500;fillColor=#e3c800;rounded=0;fontColor=#000000;" parent="1" vertex="1">
                    <mxGeometry x="1931" y="43" width="90" height="30" as="geometry"/>
                </mxCell>
                <mxCell id="Ls7KZZwDkmB82CPcDAoL-61" value="$response" style="text;html=1;align=center;verticalAlign=middle;resizable=0;points=[];autosize=1;strokeColor=#006EAF;fillColor=#1ba1e2;rounded=0;fontColor=#ffffff;" parent="1" vertex="1">
                    <mxGeometry x="1756" y="91" width="80" height="30" as="geometry"/>
                </mxCell>
                <mxCell id="2" style="edgeStyle=none;html=1;exitX=0.5;exitY=1;exitDx=0;exitDy=0;entryX=0.5;entryY=0;entryDx=0;entryDy=0;rounded=0;" edge="1" parent="1" source="Ls7KZZwDkmB82CPcDAoL-63" target="Ls7KZZwDkmB82CPcDAoL-99">
                    <mxGeometry relative="1" as="geometry">
                        <mxPoint x="1573" y="-446" as="sourcePoint"/>
                        <Array as="points">
                            <mxPoint x="1485" y="-420"/>
                            <mxPoint x="1796" y="-420"/>
                        </Array>
                    </mxGeometry>
                </mxCell>
                <mxCell id="Ls7KZZwDkmB82CPcDAoL-63" value="validateRequest($request[])" style="rounded=0;whiteSpace=wrap;html=1;" parent="1" vertex="1">
                    <mxGeometry x="1340" y="-486" width="290" height="40" as="geometry"/>
                </mxCell>
                <mxCell id="Ls7KZZwDkmB82CPcDAoL-64" value="functions.php" style="text;html=1;align=center;verticalAlign=middle;resizable=0;points=[];autosize=1;strokeColor=#B09500;fillColor=#e3c800;rounded=0;fontColor=#000000;" parent="1" vertex="1">
                    <mxGeometry x="1625" y="-481" width="90" height="30" as="geometry"/>
                </mxCell>
                <mxCell id="Ls7KZZwDkmB82CPcDAoL-68" style="edgeStyle=orthogonalEdgeStyle;orthogonalLoop=1;jettySize=auto;html=1;exitX=0.5;exitY=1;exitDx=0;exitDy=0;entryX=0.5;entryY=0;entryDx=0;entryDy=0;" parent="1" source="Ls7KZZwDkmB82CPcDAoL-66" target="Ls7KZZwDkmB82CPcDAoL-59" edge="1">
                    <mxGeometry relative="1" as="geometry"/>
                </mxCell>
                <mxCell id="Ls7KZZwDkmB82CPcDAoL-66" value="showResponsePage($response)" style="rounded=0;whiteSpace=wrap;html=1;" parent="1" vertex="1">
                    <mxGeometry x="1651" y="-30" width="290" height="40" as="geometry"/>
                </mxCell>
                <mxCell id="Ls7KZZwDkmB82CPcDAoL-67" value="index.php" style="text;html=1;align=center;verticalAlign=middle;resizable=0;points=[];autosize=1;strokeColor=#B09500;fillColor=#e3c800;rounded=0;fontColor=#000000;" parent="1" vertex="1">
                    <mxGeometry x="1931" y="-25" width="80" height="30" as="geometry"/>
                </mxCell>
                <mxCell id="Ls7KZZwDkmB82CPcDAoL-70" value="$response = return $request" style="text;html=1;align=center;verticalAlign=middle;resizable=0;points=[];autosize=1;strokeColor=#006EAF;fillColor=#1ba1e2;rounded=0;fontColor=#ffffff;" parent="1" vertex="1">
                    <mxGeometry x="1711" y="-80" width="170" height="30" as="geometry"/>
                </mxCell>
                <mxCell id="Ls7KZZwDkmB82CPcDAoL-108" style="edgeStyle=none;orthogonalLoop=1;jettySize=auto;html=1;exitX=0.5;exitY=1;exitDx=0;exitDy=0;entryX=0.5;entryY=0;entryDx=0;entryDy=0;" parent="1" source="Ls7KZZwDkmB82CPcDAoL-73" target="Ls7KZZwDkmB82CPcDAoL-63" edge="1">
                    <mxGeometry relative="1" as="geometry"/>
                </mxCell>
                <mxCell id="Ls7KZZwDkmB82CPcDAoL-73" value="validateRequest($request[])" style="rounded=0;whiteSpace=wrap;html=1;" parent="1" vertex="1">
                    <mxGeometry x="1340" y="-557" width="290" height="40" as="geometry"/>
                </mxCell>
                <mxCell id="Ls7KZZwDkmB82CPcDAoL-74" value="index.php" style="text;html=1;align=center;verticalAlign=middle;resizable=0;points=[];autosize=1;strokeColor=#B09500;fillColor=#e3c800;rounded=0;fontColor=#000000;" parent="1" vertex="1">
                    <mxGeometry x="1625" y="-552" width="80" height="30" as="geometry"/>
                </mxCell>
                <mxCell id="Ls7KZZwDkmB82CPcDAoL-86" value="if $request['post']" style="text;html=1;align=center;verticalAlign=middle;resizable=0;points=[];autosize=1;strokeColor=#C73500;fillColor=#fa6800;rounded=0;fontColor=#000000;" parent="1" vertex="1">
                    <mxGeometry x="1741" y="-405" width="110" height="30" as="geometry"/>
                </mxCell>
                <mxCell id="Ls7KZZwDkmB82CPcDAoL-87" value="switch $request['page']" style="text;html=1;align=center;verticalAlign=middle;resizable=0;points=[];autosize=1;strokeColor=#C73500;fillColor=#fa6800;rounded=0;fontColor=#000000;" parent="1" vertex="1">
                    <mxGeometry x="1721" y="-365" width="140" height="30" as="geometry"/>
                </mxCell>
                <mxCell id="Ls7KZZwDkmB82CPcDAoL-88" value="case 'x'" style="text;html=1;align=center;verticalAlign=middle;resizable=0;points=[];autosize=1;strokeColor=#C73500;fillColor=#fa6800;rounded=0;fontColor=#000000;" parent="1" vertex="1">
                    <mxGeometry x="1771" y="-320" width="50" height="20" as="geometry"/>
                </mxCell>
                <mxCell id="Ls7KZZwDkmB82CPcDAoL-99" value="validateContactForm()" style="rounded=0;whiteSpace=wrap;html=1;" parent="1" vertex="1">
                    <mxGeometry x="1701" y="-276" width="190" height="40" as="geometry"/>
                </mxCell>
                <mxCell id="Ls7KZZwDkmB82CPcDAoL-100" value="validate_contact.php" style="text;html=1;align=center;verticalAlign=middle;resizable=0;points=[];autosize=1;strokeColor=#B09500;fillColor=#e3c800;rounded=0;fontColor=#000000;" parent="1" vertex="1">
                    <mxGeometry x="1881" y="-271" width="130" height="30" as="geometry"/>
                </mxCell>
                <mxCell id="Ls7KZZwDkmB82CPcDAoL-101" value="$request['postResult'] = $resultContact" style="text;html=1;align=center;verticalAlign=middle;resizable=0;points=[];autosize=1;strokeColor=#006EAF;fillColor=#1ba1e2;rounded=0;fontColor=#ffffff;" parent="1" vertex="1">
                    <mxGeometry x="1681" y="-220" width="230" height="30" as="geometry"/>
                </mxCell>
                <mxCell id="Ls7KZZwDkmB82CPcDAoL-102" value="if $request['postResult']['error'] == false" style="text;html=1;align=center;verticalAlign=middle;resizable=0;points=[];autosize=1;strokeColor=#C73500;fillColor=#fa6800;rounded=0;fontColor=#000000;" parent="1" vertex="1">
                    <mxGeometry x="1681" y="-175" width="230" height="30" as="geometry"/>
                </mxCell>
                <mxCell id="Ls7KZZwDkmB82CPcDAoL-103" value="$request['page'] = 'x'" style="text;html=1;align=center;verticalAlign=middle;resizable=0;points=[];autosize=1;strokeColor=#006EAF;fillColor=#1ba1e2;rounded=0;fontColor=#ffffff;" parent="1" vertex="1">
                    <mxGeometry x="1736" y="-125" width="120" height="20" as="geometry"/>
                </mxCell>
                <mxCell id="Ls7KZZwDkmB82CPcDAoL-121" style="edgeStyle=none;orthogonalLoop=1;jettySize=auto;html=1;exitX=0.5;exitY=1;exitDx=0;exitDy=0;entryX=0.5;entryY=0;entryDx=0;entryDy=0;" parent="1" source="Ls7KZZwDkmB82CPcDAoL-105" target="Ls7KZZwDkmB82CPcDAoL-73" edge="1">
                    <mxGeometry relative="1" as="geometry"/>
                </mxCell>
                <mxCell id="Ls7KZZwDkmB82CPcDAoL-105" value="getRequestedPage()" style="rounded=0;whiteSpace=wrap;html=1;" parent="1" vertex="1">
                    <mxGeometry x="1340" y="-777" width="290" height="40" as="geometry"/>
                </mxCell>
                <mxCell id="Ls7KZZwDkmB82CPcDAoL-106" value="functions.php" style="text;html=1;align=center;verticalAlign=middle;resizable=0;points=[];autosize=1;strokeColor=#B09500;fillColor=#e3c800;rounded=0;fontColor=#000000;" parent="1" vertex="1">
                    <mxGeometry x="1625" y="-772" width="90" height="30" as="geometry"/>
                </mxCell>
                <mxCell id="Ls7KZZwDkmB82CPcDAoL-107" value="$request[]" style="text;html=1;align=center;verticalAlign=middle;resizable=0;points=[];autosize=1;rounded=0;fillColor=#1ba1e2;fontColor=#ffffff;strokeColor=#006EAF;" parent="1" vertex="1">
                    <mxGeometry x="1445" y="-729" width="80" height="30" as="geometry"/>
                </mxCell>
                <mxCell id="Ls7KZZwDkmB82CPcDAoL-114" style="edgeStyle=none;orthogonalLoop=1;jettySize=auto;html=1;exitX=0.5;exitY=1;exitDx=0;exitDy=0;entryX=0.5;entryY=0;entryDx=0;entryDy=0;" parent="1" source="Ls7KZZwDkmB82CPcDAoL-111" target="Ls7KZZwDkmB82CPcDAoL-105" edge="1">
                    <mxGeometry relative="1" as="geometry"/>
                </mxCell>
                <mxCell id="Ls7KZZwDkmB82CPcDAoL-111" value="getRequestedPage()" style="rounded=0;whiteSpace=wrap;html=1;" parent="1" vertex="1">
                    <mxGeometry x="1340" y="-847" width="290" height="40" as="geometry"/>
                </mxCell>
                <mxCell id="Ls7KZZwDkmB82CPcDAoL-112" value="index.php" style="text;html=1;align=center;verticalAlign=middle;resizable=0;points=[];autosize=1;strokeColor=#B09500;fillColor=#e3c800;rounded=0;fontColor=#000000;" parent="1" vertex="1">
                    <mxGeometry x="1625" y="-842" width="80" height="30" as="geometry"/>
                </mxCell>
                <mxCell id="Ls7KZZwDkmB82CPcDAoL-115" value="if POST" style="text;html=1;align=center;verticalAlign=middle;resizable=0;points=[];autosize=1;strokeColor=#C73500;fillColor=#fa6800;rounded=0;fontColor=#000000;" parent="1" vertex="1">
                    <mxGeometry x="1405" y="-687" width="70" height="30" as="geometry"/>
                </mxCell>
                <mxCell id="Ls7KZZwDkmB82CPcDAoL-116" value="if GET" style="text;html=1;align=center;verticalAlign=middle;resizable=0;points=[];autosize=1;strokeColor=#C73500;fillColor=#fa6800;rounded=0;fontColor=#000000;" parent="1" vertex="1">
                    <mxGeometry x="1495" y="-687" width="60" height="30" as="geometry"/>
                </mxCell>
                <mxCell id="Ls7KZZwDkmB82CPcDAoL-117" value="$request['post'] = true" style="text;html=1;align=center;verticalAlign=middle;resizable=0;points=[];autosize=1;strokeColor=#006EAF;fillColor=#1ba1e2;rounded=0;fontColor=#ffffff;" parent="1" vertex="1">
                    <mxGeometry x="1335" y="-647" width="140" height="30" as="geometry"/>
                </mxCell>
                <mxCell id="Ls7KZZwDkmB82CPcDAoL-118" value="$request['post'] = false" style="text;html=1;align=center;verticalAlign=middle;resizable=0;points=[];autosize=1;strokeColor=#006EAF;fillColor=#1ba1e2;rounded=0;fontColor=#ffffff;" parent="1" vertex="1">
                    <mxGeometry x="1495" y="-647" width="140" height="30" as="geometry"/>
                </mxCell>
                <mxCell id="Ls7KZZwDkmB82CPcDAoL-119" value="$request['page'] = getPostVar()" style="text;html=1;align=center;verticalAlign=middle;resizable=0;points=[];autosize=1;strokeColor=#006EAF;fillColor=#1ba1e2;rounded=0;fontColor=#ffffff;" parent="1" vertex="1">
                    <mxGeometry x="1285" y="-607" width="190" height="30" as="geometry"/>
                </mxCell>
                <mxCell id="Ls7KZZwDkmB82CPcDAoL-120" value="$request['page'] = getUrlVar()" style="text;html=1;align=center;verticalAlign=middle;resizable=0;points=[];autosize=1;strokeColor=#006EAF;fillColor=#1ba1e2;rounded=0;fontColor=#ffffff;" parent="1" vertex="1">
                    <mxGeometry x="1495" y="-607" width="180" height="30" as="geometry"/>
                </mxCell>
                <mxCell id="Ls7KZZwDkmB82CPcDAoL-127" value="$request[]&amp;nbsp;" style="whiteSpace=wrap;html=1;fillColor=#60a917;strokeColor=#2D7600;rounded=1;fontColor=#ffffff;" parent="1" vertex="1">
                    <mxGeometry x="1300" y="-729" width="135" height="27" as="geometry"/>
                </mxCell>
                <mxCell id="Ls7KZZwDkmB82CPcDAoL-128" value="$request['post']&amp;nbsp;" style="whiteSpace=wrap;html=1;fillColor=#60a917;strokeColor=#2D7600;rounded=1;fontColor=#ffffff;" parent="1" vertex="1">
                    <mxGeometry x="1190" y="-647" width="135" height="27" as="geometry"/>
                </mxCell>
                <mxCell id="Ls7KZZwDkmB82CPcDAoL-129" value="$request['page']&amp;nbsp;" style="whiteSpace=wrap;html=1;fillColor=#60a917;strokeColor=#2D7600;rounded=1;fontColor=#ffffff;" parent="1" vertex="1">
                    <mxGeometry x="1132" y="-604" width="135" height="27" as="geometry"/>
                </mxCell>
                <mxCell id="Ls7KZZwDkmB82CPcDAoL-130" value="$request['post', 'page']&amp;nbsp;" style="whiteSpace=wrap;html=1;fillColor=#a20025;strokeColor=#6F0000;rounded=1;fontColor=#ffffff;" parent="1" vertex="1">
                    <mxGeometry x="1212.5" y="-479.5" width="135" height="27" as="geometry"/>
                </mxCell>
                <mxCell id="Ls7KZZwDkmB82CPcDAoL-132" value="$request['postResult']&amp;nbsp;" style="whiteSpace=wrap;html=1;fillColor=#60a917;strokeColor=#2D7600;rounded=1;fontColor=#ffffff;" parent="1" vertex="1">
                    <mxGeometry x="1531" y="-220" width="135" height="27" as="geometry"/>
                </mxCell>
                <mxCell id="Ls7KZZwDkmB82CPcDAoL-134" value="$response['post', 'page', 'postResult']&amp;nbsp;" style="whiteSpace=wrap;html=1;fillColor=#a20025;strokeColor=#6F0000;rounded=1;fontColor=#ffffff;" parent="1" vertex="1">
                    <mxGeometry x="1433.5" y="46" width="225" height="27" as="geometry"/>
                </mxCell>
                <mxCell id="Ls7KZZwDkmB82CPcDAoL-135" value="$request[] --&amp;gt; $response[]" style="whiteSpace=wrap;html=1;fillColor=#60a917;strokeColor=#2D7600;rounded=1;fontColor=#ffffff;" parent="1" vertex="1">
                    <mxGeometry x="1531" y="-80" width="175" height="27" as="geometry"/>
                </mxCell>
                <mxCell id="Ls7KZZwDkmB82CPcDAoL-136" value="$response['post', 'page', 'postResult']&amp;nbsp;" style="whiteSpace=wrap;html=1;fillColor=#a20025;strokeColor=#6F0000;rounded=1;fontColor=#ffffff;" parent="1" vertex="1">
                    <mxGeometry x="1433.5" y="149" width="225" height="27" as="geometry"/>
                </mxCell>
                <mxCell id="Ls7KZZwDkmB82CPcDAoL-137" value="$response['postResult']&amp;nbsp;" style="whiteSpace=wrap;html=1;fillColor=#a20025;strokeColor=#6F0000;rounded=1;fontColor=#ffffff;" parent="1" vertex="1">
                    <mxGeometry x="1433.5" y="289" width="225" height="27" as="geometry"/>
                </mxCell>
                <mxCell id="5" style="edgeStyle=none;html=1;exitX=0.5;exitY=1;exitDx=0;exitDy=0;rounded=0;entryX=0.5;entryY=0;entryDx=0;entryDy=0;" edge="1" parent="1" source="Ls7KZZwDkmB82CPcDAoL-63">
                    <mxGeometry relative="1" as="geometry">
                        <mxPoint x="1572" y="-446" as="sourcePoint"/>
                        <mxPoint x="1172" y="-30" as="targetPoint"/>
                        <Array as="points">
                            <mxPoint x="1485" y="-420"/>
                            <mxPoint x="1172" y="-420"/>
                        </Array>
                    </mxGeometry>
                </mxCell>
                <mxCell id="13" style="edgeStyle=none;rounded=0;html=1;exitX=0.5;exitY=1;exitDx=0;exitDy=0;entryX=0.5;entryY=0;entryDx=0;entryDy=0;" edge="1" parent="1" source="6" target="10">
                    <mxGeometry relative="1" as="geometry"/>
                </mxCell>
                <mxCell id="6" value="showResponsePage($response)" style="rounded=0;whiteSpace=wrap;html=1;" vertex="1" parent="1">
                    <mxGeometry x="1028" y="-30" width="290" height="40" as="geometry"/>
                </mxCell>
                <mxCell id="7" value="index.php" style="text;html=1;align=center;verticalAlign=middle;resizable=0;points=[];autosize=1;strokeColor=#B09500;fillColor=#e3c800;rounded=0;fontColor=#000000;" vertex="1" parent="1">
                    <mxGeometry x="1308.5" y="-25" width="80" height="30" as="geometry"/>
                </mxCell>
                <mxCell id="8" value="$response = return $request" style="text;html=1;align=center;verticalAlign=middle;resizable=0;points=[];autosize=1;strokeColor=#006EAF;fillColor=#1ba1e2;rounded=0;fontColor=#ffffff;" vertex="1" parent="1">
                    <mxGeometry x="1088" y="-83" width="170" height="30" as="geometry"/>
                </mxCell>
                <mxCell id="9" value="$request[] --&amp;gt; $response[]" style="whiteSpace=wrap;html=1;fillColor=#60a917;strokeColor=#2D7600;rounded=1;fontColor=#ffffff;" vertex="1" parent="1">
                    <mxGeometry x="908" y="-83" width="175" height="27" as="geometry"/>
                </mxCell>
                <mxCell id="3" value="if $request['get']" style="text;html=1;align=center;verticalAlign=middle;resizable=0;points=[];autosize=1;strokeColor=#C73500;fillColor=#fa6800;rounded=0;fontColor=#000000;" vertex="1" parent="1">
                    <mxGeometry x="1123" y="-400" width="100" height="20" as="geometry"/>
                </mxCell>
                <mxCell id="29" style="edgeStyle=none;rounded=0;html=1;exitX=0.5;exitY=1;exitDx=0;exitDy=0;entryX=0.5;entryY=0;entryDx=0;entryDy=0;" edge="1" parent="1" source="10" target="21">
                    <mxGeometry relative="1" as="geometry"/>
                </mxCell>
                <mxCell id="10" value="showResponsePage($response)" style="rounded=0;whiteSpace=wrap;html=1;" vertex="1" parent="1">
                    <mxGeometry x="1028" y="30" width="290" height="40" as="geometry"/>
                </mxCell>
                <mxCell id="11" value="functions.php" style="text;html=1;align=center;verticalAlign=middle;resizable=0;points=[];autosize=1;strokeColor=#B09500;fillColor=#e3c800;rounded=0;fontColor=#000000;" vertex="1" parent="1">
                    <mxGeometry x="1308.5" y="35" width="90" height="30" as="geometry"/>
                </mxCell>
                <mxCell id="12" value="$response['get', 'page']&amp;nbsp;" style="whiteSpace=wrap;html=1;fillColor=#a20025;strokeColor=#6F0000;rounded=1;fontColor=#ffffff;" vertex="1" parent="1">
                    <mxGeometry x="811" y="36.5" width="225" height="27" as="geometry"/>
                </mxCell>
                <mxCell id="17" value="showContent($response[])" style="rounded=0;whiteSpace=wrap;html=1;" vertex="1" parent="1">
                    <mxGeometry x="1028.5" y="276" width="290" height="40" as="geometry"/>
                </mxCell>
                <mxCell id="18" value="functions.php" style="text;html=1;align=center;verticalAlign=middle;resizable=0;points=[];autosize=1;strokeColor=#B09500;fillColor=#e3c800;rounded=0;fontColor=#000000;" vertex="1" parent="1">
                    <mxGeometry x="1308.5" y="281" width="90" height="30" as="geometry"/>
                </mxCell>
                <mxCell id="20" style="edgeStyle=orthogonalEdgeStyle;orthogonalLoop=1;jettySize=auto;html=1;exitX=0.5;exitY=1;exitDx=0;exitDy=0;entryX=0.5;entryY=0;entryDx=0;entryDy=0;" edge="1" parent="1" source="21" target="17">
                    <mxGeometry relative="1" as="geometry"/>
                </mxCell>
                <mxCell id="21" value="showContent($response)" style="rounded=0;whiteSpace=wrap;html=1;" vertex="1" parent="1">
                    <mxGeometry x="1028.5" y="136" width="290" height="40" as="geometry"/>
                </mxCell>
                <mxCell id="22" value="functions.php" style="text;html=1;align=center;verticalAlign=middle;resizable=0;points=[];autosize=1;strokeColor=#B09500;fillColor=#e3c800;rounded=0;fontColor=#000000;" vertex="1" parent="1">
                    <mxGeometry x="1308.5" y="141" width="90" height="30" as="geometry"/>
                </mxCell>
                <mxCell id="23" value="switch ($response['page'])" style="text;html=1;align=center;verticalAlign=middle;resizable=0;points=[];autosize=1;strokeColor=#006EAF;fillColor=#1ba1e2;rounded=0;fontColor=#ffffff;" vertex="1" parent="1">
                    <mxGeometry x="1093.5" y="186" width="160" height="30" as="geometry"/>
                </mxCell>
                <mxCell id="25" value="$response" style="text;html=1;align=center;verticalAlign=middle;resizable=0;points=[];autosize=1;strokeColor=#006EAF;fillColor=#1ba1e2;rounded=0;fontColor=#ffffff;" vertex="1" parent="1">
                    <mxGeometry x="1133.5" y="86" width="80" height="30" as="geometry"/>
                </mxCell>
                <mxCell id="26" value="$response['get', 'page']&amp;nbsp;" style="whiteSpace=wrap;html=1;fillColor=#a20025;strokeColor=#6F0000;rounded=1;fontColor=#ffffff;" vertex="1" parent="1">
                    <mxGeometry x="811" y="144" width="225" height="27" as="geometry"/>
                </mxCell>
                <mxCell id="27" value="$response[]&amp;nbsp;" style="whiteSpace=wrap;html=1;fillColor=#a20025;strokeColor=#6F0000;rounded=1;fontColor=#ffffff;" vertex="1" parent="1">
                    <mxGeometry x="811" y="284" width="225" height="27" as="geometry"/>
                </mxCell>
                <mxCell id="31" value="$response[]" style="text;html=1;align=center;verticalAlign=middle;resizable=0;points=[];autosize=1;strokeColor=#006EAF;fillColor=#1ba1e2;rounded=0;fontColor=#ffffff;" vertex="1" parent="1">
                    <mxGeometry x="1133.5" y="236" width="80" height="20" as="geometry"/>
                </mxCell>
            </root>
        </mxGraphModel>
    </diagram>
</mxfile>